<svg
  viewBox="0 0 1024 1024"
  xmlns="http://www.w3.org/2000/svg"
  width="200"
  height="200"
>
<path
    d="M337.92 71.68H71.68v266.24a122.88 122.88 0 0 0 122.88 122.88h266.24V194.56A122.88 122.88 0 0 0 337.92 71.68z m81.92 348.16H194.56a81.92 81.92 0 0 1-81.92-81.92V112.64h225.28a81.92 81.92 0 0 1 81.92 81.92zM71.68 686.08v266.24h266.24a122.88 122.88 0 0 0 122.88-122.88V563.2H194.56A122.88 122.88 0 0 0 71.68 686.08z m348.16 143.36a81.92 81.92 0 0 1-81.92 81.92H112.64V686.08a81.92 81.92 0 0 1 81.92-81.92h225.28zM686.08 71.68a122.88 122.88 0 0 0-122.88 122.88v266.24h266.24a122.88 122.88 0 0 0 122.88-122.88V71.68z m225.28 266.24a81.92 81.92 0 0 1-81.92 81.92H604.16V194.56a81.92 81.92 0 0 1 81.92-81.92h225.28zM931.84 737.28H778.24V583.68a20.48 20.48 0 0 0-40.96 0v153.6H583.68a20.48 20.48 0 0 0 0 40.96h153.6v153.6a20.48 20.48 0 0 0 40.96 0V778.24h153.6a20.48 20.48 0 0 0 0-40.96z"
  /></svg>
