<svg viewBox="0 0 1024 1024" xmlns="http://www.w3.org/2000/svg" width="200" height="200"><path d="M729.174038 524.605382c109.685648 0 205.586743 97.476473 205.586743 209.407033 0 111.694254-95.822327 209.249496-205.586743 209.249496s-205.507975-97.555242-205.507975-209.249496c0-111.891176 95.704174-209.446418 205.507975-209.446418z m0-51.987453C584.790704 472.617929 472.623837 586.832787 472.623837 734.012415c0 147.061475 112.166867 261.394486 256.550201 261.394486 144.462102 0 256.628969-114.333011 256.628969-261.394486C985.803007 586.832787 873.63614 472.617929 729.174038 472.617929z"></path><path d="M395.666654 950.548031H138.28938c-72.112898 0-128.708329-54.665594-128.708329-128.156947V140.92223c-0.393844-34.73707 12.996863-68.253223 37.297059-93.144186A126.22711 126.22711 0 0 1 138.249996 9.732681h566.269386c72.073514 0 125.636343 57.698195 125.636343 131.150164V298.144889c0 15.753773-7.207351 26.308802-22.764202 26.308801-15.359929-0.039384-22.646049-10.594413-22.646049-26.308801V140.92223c0-42.062575-39.069358-84.873454-80.226092-84.873455H138.249996c-41.235502 0-83.258693 42.810879-83.258693 84.873455v681.508239c0 42.023191 42.023191 81.762084 83.258693 81.762084h257.377273c15.438698 0 25.75742 7.325505 25.75742 23.158047 0 15.753773-10.318722 23.236816-25.75742 23.236816z"></path><path d="M395.666654 960.315371H138.28938c-78.768867 0-138.239362-59.352341-138.239362-137.924287V140.92223a140.681197 140.681197 0 0 1 40.014585-100.075846A135.521836 135.521836 0 0 1 138.28938 0.004726h566.230002c77.075337 0 135.206761 60.573259 135.206761 140.878119V298.144889c0 22.212821-12.366712 35.997372-32.295236 35.997372-19.889139 0-32.255851-13.784552-32.255851-35.997372V140.882845c0-37.178905-35.603528-75.145499-70.655674-75.145499H138.249996c-35.761066 0-73.72766 38.675514-73.72766 75.145499v681.508239c0 35.721681 37.257674 72.073514 73.72766 72.073514h257.416658c21.779592 0 35.288453 12.603019 35.288452 32.846617 0 20.282983-13.548245 32.964771-35.288452 32.964771zM138.28938 19.500021a116.81423 116.81423 0 0 0-84.637148 35.170299 121.264671 121.264671 0 0 0-34.500763 86.25191v681.508239c0 67.504919 51.199764 118.310839 119.137911 118.310838h257.377274c16.226387 0 16.226387-9.334111 16.226387-13.351323 0-4.017212 0-13.469476-16.226387-13.469476H138.28938c-47.773318 0-92.82911-44.425641-92.82911-91.450655V140.882845c0-47.773318 45.961634-94.60141 92.789726-94.601409h566.269386c45.292099 0 89.796509 46.867476 89.796509 94.601409V298.144889c0 16.541462 9.176573 16.541462 13.115016 16.541462 3.977828 0 13.193785 0 13.193786-16.541462V140.882845c0-69.19845-49.860693-121.382824-116.105311-121.382824H138.28938z"></path><path d="M601.568473 268.882254H241.24029c-15.438698 0-24.300196-7.483042-24.300196-23.118662 0-15.753773 8.822113-23.158047 24.260811-23.158047h360.367568c15.438698 0 24.182042 7.443658 24.182042 23.158047 0.078769 15.63562-8.664575 23.118663-24.221427 23.118662zM555.331148 426.144298H241.279674c-15.478082 0-24.300196-7.443658-24.300195-23.197432 0-15.596236 8.782729-23.079278 24.260811-23.079278H555.331148c15.478082 0 24.260811 7.483042 24.260811 23.079278 0.039384 15.753773-8.743344 23.197431-24.260811 23.197432z"></path><path d="M555.370532 435.911637H241.279674c-21.188825 0-33.791844-12.287943-33.791844-32.886002 0-20.558674 12.642403-32.846618 33.791844-32.846617h314.169627c21.149441 0 33.791844 12.327328 33.791844 32.846617 0.039384 10.003646-2.835679 17.998686-8.546422 23.827583-5.907665 5.947049-14.454087 9.05842-25.324191 9.058419z"></path><path d="M241.24029 389.595543c-12.209174 0-14.651009 5.119976-14.65101 13.390708 0 8.270731 2.40245 13.390707 14.690394 13.390707h314.169627c3.82029 0 8.979651-0.630151 11.736561-3.308292 1.969222-1.969222 2.914448-5.356283 2.914448-10.043031 0-8.3495-2.441835-13.390707-14.651009-13.390707H241.279674z m175.654574 229.886939h-175.654574c-21.149441 0-33.75246-12.287943-33.75246-32.925386 0-20.558674 12.642403-32.807233 33.791844-32.807233h175.654574c21.188825 0 33.831228 12.287943 33.831229 32.807233 0 10.003646-2.835679 17.998686-8.546423 23.866967-5.907665 5.907665-14.454087 9.05842-25.32419 9.058419z m184.673609-340.872273H241.24029c-21.149441 0-33.791844-12.327328-33.791844-32.846617 0-20.637443 12.642403-32.886002 33.791844-32.886002h360.328183c21.149441 0 33.791844 12.287943 33.791844 32.886002 0.039384 10.043031-2.796295 17.919917-8.546422 23.788198-5.907665 5.986434-14.454087 9.05842-25.284807 9.058419zM622.757298 620.309555h89.599587c-6.892276-13.902705-3.859674-23.000509 8.900882-27.254028 16.226387-6.971045 28.15987 2.087375 35.879219 27.293413h92.159574c19.652832 0 29.420172 9.05842 29.420172 27.411566 0 13.942089-1.299686 25.166653-3.82029 33.870613-3.426446 14.769163-10.633797 21.740207-21.740207 20.873749 2.638757 4.804901 3.938443 10.239953 3.780905 15.675005v122.485589c0 18.353146-9.846108 27.45095-29.420172 27.45095h-74.160888v22.055283c-0.827073 9.609802-7.246736 14.808547-19.180219 15.675004-12.799941 0-19.180219-4.804901-19.180219-14.296549v-23.433738H640.795369c-20.51929 0-30.326014-8.743344-29.420172-26.11188v-135.600605c-14.57224 1.693531-21.346363-4.726132-20.51929-19.534679v-35.209683c-0.984611-20.87375 9.688571-31.310625 31.901391-31.310625z m211.218718 36.548755H631.736949c-2.559988 0.866458-3.859674 2.166144-3.859675 3.899059v23.433738h87.039599v-7.798118c0-9.491649 6.459047-14.690394 19.219603-15.63562 11.933483 0.945226 18.313762 6.143972 19.140835 15.63562v7.798118h81.959006a96.098018 96.098018 0 0 0 5.119977-20.794981 8.270731 8.270731 0 0 0-6.380278-6.537816z m-184.31915 97.791549h65.260007v-32.531543h-61.439717c-2.520604 0.866458-3.82029 2.126759-3.82029 3.859675v28.671868z m3.82029 75.618112h61.439717v-39.148127h-65.260007v35.209684c0 2.717526 1.260302 3.938443 3.859675 3.938443z m163.839244-75.618112v-28.671868a8.3495 8.3495 0 0 0-3.82029-3.859675h-60.14003v32.531543h63.96032z m-63.96032 36.548754v39.148127h61.439716c2.520604 0 3.82029-1.299686 3.82029-3.859675v-35.209683h-65.260006v-0.078769z"></path><path d="M241.24029 232.372884c-12.209174 0-14.651009 5.041208-14.65101 13.390708 0 8.270731 2.441835 13.311939 14.690394 13.311938h360.328183c3.82029 0 8.979651-0.551382 11.775946-3.347676 1.929837-1.969222 2.914448-5.356283 2.835679-10.003647 0-8.270731-2.363066-13.351323-14.611625-13.351323h-360.367567z"></path></svg>
