<svg viewBox="0 0 1024 1024" xmlns="http://www.w3.org/2000/svg"><path d="M553.708426 511.998977l318.623781-318.623781c11.988032-11.988032 12.301164-31.112602 0.699941-42.714847l-1.399883-1.399883c-11.602246-11.602246-30.725792-11.288091-42.713824 0.700965L510.293637 468.584188 191.669856 149.96143c-11.988032-11.989055-31.112602-12.302187-42.714847-0.700965l-1.399883 1.400906c-11.602246 11.602246-11.288091 30.725792 0.700965 42.714847l318.623781 318.622758L148.255067 830.621734c-11.989055 11.989055-12.302187 31.112602-0.700965 42.714847l1.399883 1.399883c11.602246 11.602246 30.726815 11.288091 42.714847-0.699941l318.623781-318.623781 318.623781 318.623781c11.988032 11.989055 31.111578 12.302187 42.713824 0.700965l1.399883-1.399883c11.602246-11.602246 11.288091-30.726815-0.699941-42.714847L553.708426 511.998977z"></path></svg>