<svg viewBox="0 0 1024 1024" xmlns="http://www.w3.org/2000/svg"><path d="M932.437 862.961H91.562c-14.371 0-26.024-11.639-26.024-26.022V183.104a26.03 26.03 0 0 1 7.624-18.405 26 26 0 0 1 18.399-7.617h0.025l283.181 0.203a26.03 26.03 0 0 1 18.399 7.624l89.76 89.76h449.511c14.371 0 26.024 11.652 26.024 26.023V836.94c0 14.382-11.653 26.021-26.024 26.021z m-814.852-52.045h788.83V306.715H472.15c-6.9 0-13.52-2.745-18.4-7.625l-89.772-89.767-246.394-0.178v601.77z m814.852-393.603H91.562c-14.371 0-26.024-11.65-26.024-26.022s11.653-26.024 26.024-26.024h840.876c14.371 0 26.024 11.652 26.024 26.024s-11.654 26.022-26.025 26.022z"></path></svg>