<svg viewBox="0 0 1024 1024" xmlns="http://www.w3.org/2000/svg"><path d="M856 128H168a40 40 0 0 0-40 40v688a40 40 0 0 0 40 40h688a40 40 0 0 0 40-40V168a40 40 0 0 0-40-40zM274.9 274.7a64.5 64.5 0 0 1 91.2 0l11.4 11.3 11.4-11.3a64.5 64.5 0 0 1 91.2 0 64.5 64.5 0 0 1 0 91.1l-95.1 95a10.7 10.7 0 0 1-15.3 0l-6.1-6.1h0.1l-88.8-88.8a64.3 64.3 0 0 1 0-91.2zM544 740a4 4 0 0 1-4 4H260a4 4 0 0 1-4-4v-60a4 4 0 0 1 4-4h280a4 4 0 0 1 4 4z m152-140a4 4 0 0 1-4 4H260a4 4 0 0 1-4-4v-60a4 4 0 0 1 4-4h432a4 4 0 0 1 4 4z"></path></svg>