<?xml version="1.0" standalone="no"?><!DOCTYPE svg PUBLIC "-//W3C//DTD SVG 1.1//EN" "http://www.w3.org/Graphics/SVG/1.1/DTD/svg11.dtd"><svg t="1677749285911" class="icon" viewBox="0 0 1024 1024" version="1.1" xmlns="http://www.w3.org/2000/svg" p-id="10001" data-spm-anchor-id="a313x.7781069.0.i0" xmlns:xlink="http://www.w3.org/1999/xlink" width="200" height="200"><path d="M96 256A117.333333 117.333333 0 0 1 213.333333 138.666667h597.333334A117.333333 117.333333 0 0 1 928 256v512A117.333333 117.333333 0 0 1 810.666667 885.333333H213.333333A117.333333 117.333333 0 0 1 96 768V256zM213.333333 202.666667c-29.44 0-53.333333 23.893333-53.333333 53.333333v264.106667l43.221333-43.221334a74.666667 74.666667 0 0 1 105.557334 0L469.333333 637.397333l117.888-117.845333a74.666667 74.666667 0 0 1 105.557334 0l171.221333 171.178667V256c0-29.44-23.893333-53.333333-53.333333-53.333333H213.333333z m649.344 577.28l-215.125333-215.168a10.666667 10.666667 0 0 0-15.104 0L491.946667 705.28a32 32 0 0 1-45.226667 0l-183.168-183.168a10.666667 10.666667 0 0 0-15.104 0L160 610.602667V768c0 29.44 23.893333 53.333333 53.333333 53.333333h597.333334a53.333333 53.333333 0 0 0 52.010666-41.386666z" fill="#53535A" p-id="10002"></path><path d="M725.333333 341.333333a42.666667 42.666667 0 1 1-85.333333 0 42.666667 42.666667 0 0 1 85.333333 0z" fill="#53535A" p-id="10003"></path></svg>