<svg viewBox="0 0 1024 1024" xmlns="http://www.w3.org/2000/svg"><path d="M829.2 197.9c-84.8-84.5-197.3-131.1-317-131.1-119.7 0-232.2 46.6-316.9 131.1C110.6 282.4 64 394.8 64 514.4s46.6 232 131.2 316.6c84.6 84.5 197.1 131 316.9 131 119.7 0 232.3-46.6 317.1-131.1 174.7-174.5 174.7-458.5 0-633zM624.3 589L295.6 839.2l104.3-399.4 328.7-250.2L624.3 589z m-112.2-26.3c12.9 0 25-5 34.2-14.1 18.8-18.8 18.8-49.4 0-68.2-9.1-9.1-21.3-14.1-34.2-14.1-12.9 0-25 5-34.1 14.1-9.1 9.1-14.2 21.2-14.2 34.1 0 12.9 5 25 14.1 34.1 9.2 9.1 21.3 14.1 34.2 14.1z"></path></svg>