<?xml version="1.0" standalone="no"?><!DOCTYPE svg PUBLIC "-//W3C//DTD SVG 1.1//EN" "http://www.w3.org/Graphics/SVG/1.1/DTD/svg11.dtd"><svg class="icon" viewBox="0 0 1024 1024" version="1.1" xmlns="http://www.w3.org/2000/svg"><path d="M680.256 64c49.28 0 89.344 40.256 89.344 89.152v717.696c0 49.28-40 89.152-89.344 89.152H64V64h616.256zM566.72 557.568H514.56v29.824c-13.696 4.096-26.24 11.328-36.608 21.12l-25.856-14.912-26.048 45.12 25.856 14.976a91.392 91.392 0 0 0 0 42.24l-25.856 14.912 26.048 45.12 25.856-14.912c10.368 9.792 22.912 17.024 36.608 21.12v29.824h52.096v-29.824c13.696-4.096 26.24-11.328 36.544-21.12l25.856 14.912 26.048-45.12-25.856-14.912a91.392 91.392 0 0 0 0-42.24l25.856-14.976-26.048-45.12-25.856 14.976a90.944 90.944 0 0 0-36.544-21.12v-29.888z m-182.4 13.056a208.384 208.384 0 0 0-208.32 208.384h208.384z m156.352 78.08a26.048 26.048 0 1 1 0 52.16 26.048 26.048 0 0 1 0-52.096zM904 512v179.2h-89.6V512h89.6z m-519.68-280a156.224 156.224 0 1 0 0 312.448 156.224 156.224 0 0 0 0-312.448z m519.68 11.2v179.2h-89.6V243.2h89.6z"></path></svg>
