<svg viewBox="0 0 1024 1024" xmlns="http://www.w3.org/2000/svg" width="200" height="200"><path d="M998.4 518.023529C998.4 246.241882 780.649412 25.901176 512 25.901176 243.380706 25.901176 25.6 246.241882 25.6 518.023529c0 271.781647 217.780706 492.122353 486.4 492.122353 268.619294 0 486.4-220.340706 486.4-492.122353z m-511.186824-6.475294a26.112 26.112 0 0 0 7.318589 25.419294l149.775059 141.312a25.389176 25.389176 0 0 0 36.171294-1.264941 26.112 26.112 0 0 0-1.234824-36.592941l-141.703529-133.722353 0.060235-1.626353V297.863529c0-14.305882-11.444706-25.901176-25.6-25.901176s-25.6 11.595294-25.6 25.901176v207.209412c0 2.228706 0.271059 4.397176 0.813176 6.475294zM76.8 518.023529C76.8 274.853647 271.661176 77.703529 512 77.703529c240.338824 0 435.2 197.150118 435.2 440.32 0 243.2-194.861176 440.32-435.2 440.32-240.338824 0-435.2-197.12-435.2-440.32z m734.991059 370.326589a25.419294 25.419294 0 0 0-24.847059-7.198118 25.750588 25.750588 0 0 0-18.371765 18.371765c-2.409412 9.035294 0.210824 18.672941 6.836706 25.238588l89.148235 91.256471a25.419294 25.419294 0 0 0 24.847059 7.168 25.750588 25.750588 0 0 0 18.371765-18.371765 26.112 26.112 0 0 0-6.806588-25.238588l-89.148236-91.256471z m-576.451765 36.412235a26.112 26.112 0 0 0-0.481882-36.321882 25.389176 25.389176 0 0 0-35.900236-0.090353l-89.148235 91.25647a26.112 26.112 0 0 0-6.836706 25.208471c2.409412 9.035294 9.426824 16.052706 18.371765 18.371765a25.419294 25.419294 0 0 0 24.847059-7.168l89.148235-91.256471zM831.819294 51.802353c77.793882 0 140.890353 63.759059 141.010824 142.456471 0 14.305882 11.444706 25.901176 25.6 25.901176s25.6-11.595294 25.6-25.901176C1024 87.100235 937.863529 0 831.789176 0h-25.178352c-14.155294 0-25.6 11.595294-25.6 25.901176s11.444706 25.901176 25.6 25.901177h25.178352zM192.210824 0C86.106353 0 0 87.100235 0 194.258824c0 14.305882 11.444706 25.901176 25.6 25.901176s25.6-11.595294 25.6-25.901176c0-78.546824 63.216941-142.456471 141.010824-142.456471h25.178352c14.155294 0 25.6-11.595294 25.6-25.901177S231.544471 0 217.389176 0h-25.178352z"></path></svg>
